<?xml version="1.0" encoding="iso-8859-1"?>
<!-- Generator: Adobe Illustrator 19.0.0, SVG Export Plug-In . SVG Version: 6.00 Build 0)  -->
<svg version="1.1" id="Layer_1" xmlns="http://www.w3.org/2000/svg" xmlns:xlink="http://www.w3.org/1999/xlink" x="0px" y="0px"
	 viewBox="0 0 511.608 511.608" style="enable-background:new 0 0 511.608 511.608;" xml:space="preserve">
<g>
	<g>
		<path d="M473.2,234.604c12.4-14,18.8-31.6,18.8-50.4c0-42-34.4-76.4-76.4-76.4c-7.6,0-15.2,1.2-22,3.2c1.6-6.4,2.4-12.8,2.4-19.2
			c0-46.4-37.6-84-84-84c-28,0-54.4,14-69.6,37.2c-15.2-16-36-25.2-58.4-25.2c-42.4,0-77.2,32.4-79.6,74.8
			c-28.4,8.8-48.4,35.2-48.4,65.2c0,8.8,1.6,17.2,4.8,25.6c-34.8,6.8-60.8,38-60.8,74.4c0,42,34,76,76,76h0.4
			c4,29.6,29.2,52,59.6,52c24.8,0,46-14.8,55.2-36.4c33.6,36.4,36.4,90.8,36.4,148.4c0,2.4,1.6,4,4,4H304c1.2,0,2-0.4,2.8-1.2
			c0.8-0.8,1.2-2,1.2-2.8s-1.6-84,26.8-121.6c5.6,1.2,11.2,2,16.8,2c22,0,43.2-9.2,58.4-25.6c10.4,6,22,9.2,34,9.2
			c37.2,0,67.6-30.4,67.6-67.6C512,269.404,496.8,245.804,473.2,234.604z M300,495.804h-64.4c0-59.2-4-115.2-41.6-152.8
			c1.2-4.8,2-10,2-15.2c0-7.2-1.2-14.4-3.6-20.8c8,4.4,16.8,7.2,26,8.4c20,14.4,43.2,69.2,46,88.8c0.4,2,2,3.2,3.6,3.6
			c0,0,0,0,0.4,0c2,0,3.6-1.2,4-3.2c0-0.4,8.8-34.8,18.8-53.2c9.6,11.2,22,20,36.4,24.8C301.6,411.804,300,478.604,300,495.804z
			 M230.8,315.804c14.8-0.4,29.6-5.2,41.6-14c0,15.6,4.8,30,13.2,42.4c-7.2,11.6-13.6,30.4-17.2,43.6
			C261.6,366.204,246.8,333.004,230.8,315.804z M444.4,355.404c-11.6,0-22.8-3.2-32.4-9.6c0,0-0.4,0-0.8-0.4
			c-5.6-3.6-10.8-8.4-14.8-14c-1.2-1.6-4-2-5.6-0.8c-1.6,1.2-2,4-0.8,5.6c4,5.2,8.4,9.6,13.6,13.6c-13.6,14-32,22-51.6,22
			c-6,0-11.6-0.8-17.2-2h-0.4c-31.2-8-54.4-36-54.4-69.6c0-2,0-4,0.4-6.4c0-0.4,0-0.8,0-1.2c1.6-16.4,8.8-31.6,20.8-43.2
			c1.6-1.6,1.6-4,0-5.6c-1.6-1.6-4-1.6-5.6,0c-12.8,12.8-20.8,30-22.8,48c-12.8,10-28.4,16-44.8,16c-16.4,0-32.4-6-45.2-17.2
			c-0.4,0-0.4-0.4-0.8-0.4c-14-12.8-22-31.2-22-50.4c0-6.8,1.2-14,3.2-20.4c0.8-2-0.4-4.4-2.8-5.2c-2-0.8-4.4,0.4-5.2,2.8
			c-2,7.2-3.2,15.2-3.2,22.8c0,21.6,9.2,42.4,25.6,56.8c6.8,9.2,10.4,19.6,10.4,30.8c0,28.8-23.2,52-52,52
			c-26,0-47.6-19.2-51.2-44.4c12.8-1.6,24.8-6,35.2-13.6c2-1.2,2.4-3.6,0.8-5.6c-1.2-2-3.6-2.4-5.6-0.8
			c-10.4,7.2-22.4,11.6-34.8,12.4c0,0,0,0-0.4,0c0,0,0,0-0.4,0h-1.2c-0.8,0-2,0-2.8,0c-37.2,0.4-67.6-30-67.6-67.6
			c0-34,25.6-63.2,59.6-67.6H68c12.4-1.6,24.8,0.4,36,5.6c0.4,0.4,1.2,0.4,1.6,0.4c1.6,0,2.8-0.8,3.6-2.4c0.8-2,0-4.4-2-5.2
			c-12-5.6-24.8-7.6-38-6.4c-3.6-7.6-5.2-16-5.2-24.4c0-27.2,18.4-51.2,44.8-58c0,0,0.4,0,0.4-0.4c4.8-1.2,9.6-1.6,14.4-1.6
			c11.6,0,22.8,3.2,32.4,9.6c0.8,0.4,1.6,0.8,2,0.8c1.2,0,2.4-0.8,3.2-2c1.2-2,0.8-4.4-1.2-5.6c-10-7.2-22.8-10.8-36-10.8
			c-4,0-7.6,0.4-11.6,1.2c3.6-36.8,34-65.2,71.6-65.2c21.6,0,41.6,9.6,55.2,26c0,0,0,0.4,0.4,0.4c4.8,6,8.8,12.8,11.6,20
			c0.8,1.6,2,2.4,3.6,2.4c0.4,0,0.8,0,1.6-0.4c2-0.8,3.2-3.2,2.4-5.2c-2.8-6.8-6.8-13.2-11.2-19.2c14-22,38.4-36,64.4-36
			c42,0,76,34,76,76c0,8-1.2,16.4-4,24c0,0,0,0,0,0.4c-10.4,30.8-39.2,51.6-72,51.6c-2.4,0-4,1.6-4,4c0,2.4,1.6,4,4,4
			c35.2,0,66.8-22,78.8-55.2c8-3.2,16.4-4.8,25.2-4.8c37.6,0,68.4,30.8,68.4,68.4c0,17.6-6.8,34.4-18.8,47.2
			c-6.8-2.4-14-3.6-21.2-3.6c-2.4,0-4,1.6-4,4c0,2.4,1.6,4,4,4c7.2,0,14,1.2,20.8,3.6c23.2,8.8,39.2,31.2,39.2,56
			C504,328.604,477.2,355.404,444.4,355.404z"/>
	</g>
</g>
<g>
	<g>
		<path d="M253.6,111.804c-6.8-2.8-14.4-4-21.6-4c-33.2,0-60,26.8-60,60c0,12.8,4,25.2,11.6,35.6c0.8,1.2,2,1.6,3.2,1.6
			c0.8,0,1.6-0.4,2.4-0.8c1.6-1.2,2-4,0.8-5.6c-6.8-9.2-10-19.6-10-30.8c0-28.8,23.2-52,52-52c6.4,0,12.8,1.2,18.8,3.6
			c2,0.8,4.4-0.4,5.2-2.4C256.8,114.604,256,112.604,253.6,111.804z"/>
	</g>
</g>
<g>
</g>
<g>
</g>
<g>
</g>
<g>
</g>
<g>
</g>
<g>
</g>
<g>
</g>
<g>
</g>
<g>
</g>
<g>
</g>
<g>
</g>
<g>
</g>
<g>
</g>
<g>
</g>
<g>
</g>
</svg>
