<?xml version="1.0" encoding="iso-8859-1"?>
<!-- Generator: Adobe Illustrator 19.0.0, SVG Export Plug-In . SVG Version: 6.00 Build 0)  -->
<svg version="1.1" id="Capa_1" xmlns="http://www.w3.org/2000/svg" xmlns:xlink="http://www.w3.org/1999/xlink" x="0px" y="0px"
	 viewBox="0 0 512 512" style="enable-background:new 0 0 512 512;" xml:space="preserve">
<g>
	<g>
		<path d="M355.436,272.92c-46.204,0-83.793,37.59-83.793,83.793c0,46.204,37.589,83.794,83.793,83.794
			c46.204,0,83.793-37.59,83.793-83.794C439.23,310.51,401.64,272.92,355.436,272.92z M355.436,425.299
			c-37.818,0-68.585-30.768-68.585-68.586s30.768-68.585,68.585-68.585c37.817,0,68.585,30.768,68.585,68.585
			C424.022,394.531,393.255,425.299,355.436,425.299z"/>
	</g>
</g>
<g>
	<g>
		<path d="M355.436,320.404c-20.022,0-36.309,16.288-36.309,36.309s16.288,36.309,36.309,36.309
			c20.021,0,36.309-16.288,36.309-36.309S375.457,320.404,355.436,320.404z M355.436,377.815c-11.636,0-21.101-9.465-21.101-21.101
			c0-11.636,9.466-21.102,21.101-21.102c11.635,0,21.102,9.465,21.102,21.102C376.538,368.35,367.072,377.815,355.436,377.815z"/>
	</g>
</g>
<g>
	<g>
		<path d="M438.21,223.883V94.507v-29.24c0-4.199-3.405-7.604-7.604-7.604h-28.099c-4.199,0-7.604,3.405-7.604,7.604
			s3.405,7.604,7.604,7.604h20.495v14.032H219.586H179.23V72.871h187.79c4.199,0,7.604-3.405,7.604-7.604s-3.405-7.604-7.604-7.604
			H171.626c-4.199,0-7.604,3.405-7.604,7.604v29.24c0,4.199,3.405,7.604,7.604,7.604h38.022l-30.636,113.102h-51.578v-85.355
			c0-12.069-9.784-21.854-21.854-21.854h-3.032V58.56c0-9.851,7.986-17.837,17.837-17.837h7.736c4.199,0,7.604-3.405,7.604-7.604
			s-3.405-7.604-7.604-7.604h-7.736c-18.25,0-33.045,14.794-33.045,33.045v49.445h-1.22c-12.069,0-21.854,9.784-21.854,21.854
			v85.355H41.849c-23.111,0-41.846,18.735-41.846,41.846v142.866c0,0.04-0.003,0.078-0.003,0.117
			c0,47.665,38.778,86.442,86.442,86.442c45.1,0,82.221-34.724,86.088-78.836h12.304v-0.002h51.251
			c19.838,46.31,65.866,78.838,119.352,78.838c69.001,0,125.588-54.135,129.541-122.162h19.418c4.2,0,7.604-3.411,7.604-7.611
			C511.998,300.755,482.482,251.572,438.21,223.883z M79.477,129.858c0-3.664,2.981-6.646,6.646-6.646h19.46
			c3.664,0,6.646,2.981,6.646,6.646v85.352H79.477V129.858z M86.442,471.276c-39.278,0-71.233-31.955-71.234-71.232h0.003v-0.119
			c0.064-39.224,31.991-71.117,71.231-71.117c39.279,0,71.234,31.956,71.234,71.235C157.676,439.322,125.721,471.276,86.442,471.276
			z M198.88,392.439h-6.443v-62.66c0-4.199-3.405-7.604-7.604-7.604c-4.2,0-7.605,3.404-7.605,7.604v62.662h-4.698
			c-3.865-44.115-40.987-78.841-86.088-78.841c-29.526,0-55.631,14.889-71.231,37.544v-94.075c0-14.717,11.931-26.648,26.648-26.648
			h135.37v63.872c0,4.199,3.405,7.604,7.604,7.604s7.604-3.405,7.604-7.604v-70.467l32.969-121.714h197.598V215.5
			c-4.412-2.12-8.938-4.039-13.568-5.745v-86.472c0-4.199-3.405-7.604-7.604-7.604H241.609c-3.434,0-6.442,2.301-7.339,5.616
			l-27.999,103.361c-0.815,3.011,0.278,6.297,2.959,8.208c1.311,0.934,2.914,1.37,4.523,1.385l43.738,0.426
			c-35.711,28.72-58.611,72.755-58.611,122.044V392.439z M394.227,130.886v74.134c-12.41-3.175-25.406-4.867-38.792-4.867
			c-27.418,0-53.207,7.094-75.643,19.53l-56.268-0.547l23.905-88.25H394.227z M355.436,471.276
			c-63.171,0-114.563-51.393-114.563-114.563c0-63.17,51.393-114.562,114.563-114.562s114.562,51.393,114.562,114.562
			C469.999,419.884,418.607,471.276,355.436,471.276z M484.979,349.114c-3.949-68.031-60.538-122.17-129.542-122.17
			c-71.555,0-129.771,58.215-129.771,129.77c0,12.386,1.747,24.371,5.002,35.724h-16.581v-35.72
			c0-77.945,63.409-141.357,141.347-141.357c75.395,0,137.193,59.329,141.156,133.753H484.979z"/>
	</g>
</g>
<g>
	<g>
		<path d="M86.442,354.264c-25.242,0-45.778,20.536-45.778,45.778c0,25.242,20.536,45.778,45.778,45.778
			s45.778-20.536,45.778-45.778C132.22,374.8,111.684,354.264,86.442,354.264z M86.442,430.612c-16.856,0-30.57-13.714-30.57-30.57
			c0-16.857,13.714-30.57,30.57-30.57s30.57,13.714,30.57,30.57C117.012,416.898,103.298,430.612,86.442,430.612z"/>
	</g>
</g>
<g>
	<g>
		<path d="M35.136,245.167c-4.199,0-7.604,3.405-7.604,7.604v52.755c0,4.199,3.405,7.604,7.604,7.604
			c18.737,0,33.982-15.244,33.982-33.982C69.118,260.412,53.875,245.167,35.136,245.167z M42.74,296.314v-34.328
			c6.575,2.924,11.17,9.517,11.17,17.165C53.91,286.798,49.315,293.39,42.74,296.314z"/>
	</g>
</g>
<g>
	<g>
		<path d="M146.689,240.371h-34.53c-4.199,0-7.604,3.405-7.604,7.604c0,4.199,3.405,7.604,7.604,7.604h34.53
			c4.199,0,7.604-3.405,7.604-7.604C154.292,243.775,150.888,240.371,146.689,240.371z"/>
	</g>
</g>
<g>
	<g>
		<path d="M146.689,264.352h-34.53c-4.199,0-7.604,3.405-7.604,7.604s3.405,7.604,7.604,7.604h34.53
			c4.199,0,7.604-3.405,7.604-7.604S150.888,264.352,146.689,264.352z"/>
	</g>
</g>
<g>
	<g>
		<path d="M146.689,288.334h-34.53c-4.199,0-7.604,3.405-7.604,7.604s3.405,7.604,7.604,7.604h34.53
			c4.199,0,7.604-3.405,7.604-7.604S150.888,288.334,146.689,288.334z"/>
	</g>
</g>
<g>
</g>
<g>
</g>
<g>
</g>
<g>
</g>
<g>
</g>
<g>
</g>
<g>
</g>
<g>
</g>
<g>
</g>
<g>
</g>
<g>
</g>
<g>
</g>
<g>
</g>
<g>
</g>
<g>
</g>
</svg>
